<?xml version="1.0" standalone="no"?>
<!DOCTYPE svg PUBLIC "-//W3C//DTD SVG 20010904//EN"
 "http://www.w3.org/TR/2001/REC-SVG-20010904/DTD/svg10.dtd">
<svg version="1.0" xmlns="http://www.w3.org/2000/svg"
 width="256.000000pt" height="256.000000pt" viewBox="0 0 256.000000 256.000000"
 preserveAspectRatio="xMidYMid meet">

<g transform="translate(0.000000,256.000000) scale(0.100000,-0.100000)"
fill="#000000" stroke="none">
<path d="M1255 2545 c-82 -18 -147 -48 -220 -100 -34 -24 -75 -47 -91 -51 -51
-12 -101 -42 -131 -79 l-29 -35 -55 11 c-92 19 -175 -16 -233 -99 -24 -33 -31
-56 -34 -105 -8 -121 34 -175 200 -258 98 -49 118 -63 113 -78 -3 -10 -1 -97
5 -194 11 -194 24 -247 85 -335 l33 -49 -43 -31 c-46 -32 -119 -118 -130 -153
-4 -11 -1 -26 5 -34 22 -26 49 -17 76 26 14 22 27 39 29 37 2 -2 0 -46 -5 -98
-6 -51 -11 -142 -13 -200 l-2 -107 -30 -13 c-16 -8 -33 -15 -37 -18 -5 -2 -8
55 -8 126 0 142 -8 165 -49 142 -21 -11 -21 -17 -21 -425 0 -408 0 -414 20
-420 41 -13 50 10 50 121 0 57 2 104 4 104 3 0 20 -9 39 -20 19 -12 58 -23 86
-27 l51 -6 0 -69 c0 -76 11 -108 38 -108 34 0 42 21 42 113 l0 90 45 48 c24
26 47 58 50 72 l7 24 69 -35 c65 -33 76 -36 183 -40 96 -4 125 -1 184 17 38
11 80 30 94 41 l26 20 30 -53 c17 -30 42 -61 56 -70 25 -17 26 -21 26 -111 0
-101 10 -124 50 -111 18 6 20 14 20 89 l0 83 48 5 c39 4 85 20 134 46 4 2 9
-45 10 -104 2 -87 6 -109 20 -117 12 -8 21 -7 32 2 14 12 16 61 16 421 0 379
-1 413 -20 472 -26 86 -87 177 -152 229 -29 23 -52 46 -50 52 1 5 14 24 27 41
56 73 68 121 77 291 10 191 11 174 0 400 -10 198 -26 261 -91 364 -40 62 -55
74 -81 66 -30 -9 -25 -38 20 -113 54 -90 71 -147 77 -273 l6 -107 -42 11 -41
11 0 91 c0 94 -8 115 -42 115 -24 0 -38 -30 -38 -84 l0 -46 -80 0 -79 0 -41
60 c-26 38 -48 60 -60 60 -12 0 -34 -22 -60 -60 l-41 -60 -124 0 c-79 0 -125
4 -125 10 0 6 16 42 36 81 28 57 35 82 35 129 1 74 -36 147 -92 186 -22 15
-39 28 -39 30 0 2 20 15 45 30 76 44 157 64 259 64 104 0 175 -17 253 -61 62
-34 89 -37 98 -8 9 28 -13 51 -90 88 -116 57 -262 75 -390 46z m-185 -247 c18
-13 41 -39 51 -58 34 -63 26 -94 -71 -289 -49 -100 -92 -181 -94 -181 -2 0
-82 37 -178 83 -127 61 -181 93 -204 119 -57 65 -53 147 11 210 43 43 115 49
194 17 31 -13 34 -13 50 9 36 52 76 95 95 102 42 17 112 11 146 -12z m430
-346 c0 -4 13 -22 29 -40 30 -32 30 -32 126 -32 l96 0 -3 -207 c-3 -207 -3
-208 -32 -265 -16 -31 -39 -66 -51 -78 -19 -18 -27 -19 -75 -10 -105 20 -170
9 -170 -29 0 -30 21 -38 111 -43 105 -5 176 -36 237 -102 78 -85 95 -143 107
-377 6 -104 5 -131 -9 -156 -14 -29 -70 -83 -84 -83 -4 0 -6 51 -4 114 4 124
-10 217 -54 356 -25 81 -41 98 -76 79 -23 -12 -23 -13 16 -144 56 -190 58
-361 3 -459 -27 -49 -93 -101 -150 -118 -23 -7 -87 -12 -142 -12 -115 0 -180
22 -233 77 -97 100 -107 303 -27 555 24 76 24 96 -1 106 -25 9 -41 -4 -57 -47
-53 -139 -81 -324 -67 -437 5 -36 7 -67 5 -69 -11 -10 -75 44 -90 76 -15 31
-16 55 -10 177 11 231 30 291 117 372 65 61 126 86 218 92 80 5 100 13 100 43
0 35 -42 44 -133 31 l-82 -12 -28 32 c-49 58 -69 130 -74 258 l-4 115 43 80
43 80 168 5 169 5 24 30 c13 17 24 33 24 38 0 4 5 7 10 7 6 0 10 -3 10 -8z
m404 -197 c9 -14 16 -38 16 -54 0 -35 -43 -91 -71 -91 -17 0 -19 8 -19 94 l0
95 29 -10 c16 -6 37 -21 45 -34z m-1004 -45 c37 -19 40 -24 40 -60 0 -43 -13
-50 -52 -29 -24 13 -50 72 -42 93 8 20 7 20 54 -4z m40 -201 c0 -36 39 -139
69 -184 17 -25 31 -47 31 -49 0 -2 -17 -15 -39 -29 l-39 -26 -20 22 c-46 50
-74 127 -80 218 l-5 87 42 -11 c28 -8 41 -17 41 -28z m968 -42 c-6 -89 -28
-155 -74 -214 l-25 -33 -39 26 c-22 15 -40 28 -40 30 0 2 16 32 35 66 18 35
41 90 49 122 9 32 17 60 18 61 5 4 63 23 72 24 5 1 7 -36 4 -82z m77 -527 c31
-61 45 -143 45 -263 0 -75 -3 -98 -12 -94 -67 28 -65 24 -66 125 -2 106 -19
297 -28 315 -3 7 4 1 16 -13 12 -14 32 -45 45 -70z m-1029 -476 c18 -8 42 -14
53 -14 54 0 25 -125 -38 -167 -71 -48 -171 -21 -212 57 -35 66 -14 143 51 187
l33 23 39 -36 c22 -20 55 -42 74 -50z m1045 21 c30 -48 33 -88 11 -139 -25
-56 -70 -86 -130 -86 -75 0 -135 47 -148 115 -9 52 2 72 44 80 43 8 87 33 121
69 23 25 25 25 54 8 16 -9 38 -30 48 -47z"/>
<path d="M1178 1739 c-38 -22 -13 -95 29 -87 22 4 30 62 12 84 -13 16 -18 17
-41 3z"/>
<path d="M1546 1734 c-32 -32 -10 -90 31 -82 10 2 22 15 27 30 8 22 6 32 -9
48 -22 24 -29 25 -49 4z"/>
<path d="M1227 1513 c-14 -13 -7 -40 16 -60 78 -72 210 -71 282 1 21 21 24 29
15 46 -14 27 -42 25 -87 -6 -45 -31 -104 -29 -151 5 -30 21 -62 27 -75 14z"/>
<path d="M1172 838 c-17 -17 -15 -63 3 -78 20 -17 54 -3 61 25 12 47 -33 84
-64 53z"/>
<path d="M1542 838 c-24 -24 -4 -88 28 -88 16 0 40 32 40 54 0 26 -17 46 -40
46 -9 0 -21 -5 -28 -12z"/>
<path d="M1289 661 c-50 -51 -36 -138 31 -195 42 -35 88 -35 131 1 65 55 79
145 30 194 -27 26 -36 29 -96 29 -60 0 -69 -3 -96 -29z m141 -56 c10 -12 10
-21 0 -45 -18 -44 -44 -56 -70 -30 -27 27 -37 70 -19 81 22 14 75 10 89 -6z"/>
</g>
</svg>
